<svg width="16" height="16" viewBox="0 0 16 16" fill="none" xmlns="http://www.w3.org/2000/svg">
<path d="M14.4014 8.15991C14.4014 7.70966 14.3579 7.2449 14.2853 6.80917H7.99634V9.37993H11.5983C11.4531 10.2078 10.9738 10.934 10.2621 11.3988L12.4117 13.069C13.6752 11.8926 14.4014 10.1788 14.4014 8.15991Z" fill="#4280EF"/>
<path d="M7.99612 14.6667C9.7971 14.6667 11.3076 14.0712 12.4114 13.0545L10.2619 11.3987C9.66639 11.8054 8.89661 12.0378 7.99612 12.0378C6.25324 12.0378 4.78631 10.8614 4.24892 9.29276L2.04126 10.9921C3.17414 13.2433 5.46894 14.6667 7.99612 14.6667Z" fill="#34A353"/>
<path d="M4.24896 9.27826C3.973 8.45039 3.973 7.5499 4.24896 6.72203L2.0413 5.00819C1.09724 6.89632 1.09724 9.1185 2.0413 10.9921L4.24896 9.27826Z" fill="#F6B704"/>
<path d="M7.99612 3.97697C8.94018 3.96244 9.86972 4.32554 10.5524 4.97913L12.455 3.06195C11.2495 1.92908 9.65186 1.31907 7.99612 1.33359C5.46894 1.33359 3.17414 2.75695 2.04126 5.00817L4.24892 6.72201C4.78631 5.13889 6.25324 3.97697 7.99612 3.97697Z" fill="#E54335"/>
</svg>
