<svg width="17" height="16" viewBox="0 0 17 16" fill="none" xmlns="http://www.w3.org/2000/svg">
<path d="M8.99338 1.10999C9.54959 0.476142 10.3272 0.0790305 11.1667 0C11.2275 0.847708 10.9534 1.68544 10.4034 2.33333C10.1452 2.66261 9.81439 2.9278 9.43683 3.1082C9.05926 3.28859 8.64513 3.37933 8.22672 3.37333C8.1971 2.96401 8.24968 2.55289 8.38134 2.16418C8.51301 1.77548 8.7211 1.41705 8.99338 1.10999ZM13.19 12.8467C12.58 13.74 11.9467 14.63 10.9467 14.6466C9.94673 14.6633 9.64673 14.0633 8.52673 14.0633C7.40673 14.0633 7.05339 14.63 6.12339 14.6667C5.19339 14.7033 4.42339 13.7 3.79006 12.81C2.53006 10.9867 1.56673 7.66334 2.86006 5.42C3.16403 4.877 3.60355 4.42205 4.13576 4.09957C4.66797 3.77709 5.2747 3.59808 5.89673 3.58C6.84339 3.58 7.73673 4.22001 8.31673 4.22001C8.89673 4.22001 9.98339 3.43001 11.1234 3.55334C11.6565 3.56722 12.179 3.70521 12.6494 3.95634C13.1198 4.20747 13.5252 4.5648 13.8334 5C13.3555 5.29394 12.9595 5.70374 12.6821 6.19145C12.4048 6.67916 12.255 7.229 12.2467 7.79C12.2505 8.42303 12.439 9.04122 12.7889 9.56877C13.1388 10.0963 13.635 10.5103 14.2167 10.76C13.978 11.5019 13.6321 12.2048 13.19 12.8467Z" fill="#1A1A1A"/>
</svg>
